<svg xmlns="http://www.w3.org/2000/svg" viewBox="0 0 100 100">
  <!-- Left upper wing -->
  <ellipse cx="28" cy="38" rx="22" ry="30" fill="white"/>
  
  <!-- Right upper wing -->
  <ellipse cx="72" cy="38" rx="22" ry="30" fill="white"/>
  
  <!-- Left lower wing -->
  <ellipse cx="32" cy="65" rx="18" ry="22" fill="white"/>
  
  <!-- Right lower wing -->
  <ellipse cx="68" cy="65" rx="18" ry="22" fill="white"/>
  
  <!-- Body - thorax -->
  <ellipse cx="50" cy="35" rx="8" ry="12" fill="white"/>
  
  <!-- Body - abdomen -->
  <ellipse cx="50" cy="60" rx="6" ry="20" fill="white"/>
  
  <!-- Head -->
  <circle cx="50" cy="22" r="6" fill="white"/>
  
  <!-- Left antenna - upper -->
  <path d="M46,18 Q35,5 30,12" stroke="white" stroke-width="2" fill="none"/>
  
  <!-- Right antenna - upper -->
  <path d="M54,18 Q65,5 70,12" stroke="white" stroke-width="2" fill="none"/>
  
  <!-- Left antenna - lower (curled) -->
  <path d="M44,20 Q32,15 28,22" stroke="white" stroke-width="2" fill="none"/>
  
  <!-- Right antenna - lower (curled) -->
  <path d="M56,20 Q68,15 72,22" stroke="white" stroke-width="2" fill="none"/>
  
  <!-- Left wing pattern - upper -->
  <ellipse cx="25" cy="35" rx="8" ry="12" fill="#ddd"/>
  
  <!-- Right wing pattern - upper -->
  <ellipse cx="75" cy="35" rx="8" ry="12" fill="#ddd"/>
  
  <!-- Left wing pattern - lower -->
  <ellipse cx="30" cy="62" rx="6" ry="8" fill="#ddd"/>
  
  <!-- Right wing pattern - lower -->
  <ellipse cx="70" cy="62" rx="6" ry="8" fill="#ddd"/>
  
  <!-- Eyes -->
  <circle cx="48" cy="21" r="2" fill="black"/>
  <circle cx="52" cy="21" r="2" fill="black"/>
</svg>
